# xmcd
#
# Track frame offsets:
#	150
#	14734
#	27040
#	40179
#	52925
#	62920
#	78435
#	93888
#	104430
#	114407
#	127205
#	142154
#	158518
#
# Disc length: 2322 seconds
#
# Revision: 1
# Processed by: cddbd v1.5.2PL0 Copyright (c) Steve Scherf et al.
# Submitted via: audiograbber 1.83.01
#
DISCID=aa09100d
DTITLE=The Real McKenzies - Off The Leash
DYEAR=2008
DGENRE=Punk Rock
TTITLE0=Chip
TTITLE1=The Lads Who Fought and Won 
TTITLE2=The Ballad Of Greyfriars Bobby
TTITLE3=Kings Of Fife
TTITLE4=Old Becomes New 
TTITLE5=White Knuckle Ride
TTITLE6=The Maple Trees Remember
TTITLE7=Anyone Else
TTITLE8=My Mangy Hound 
TTITLE9=Too Many Fingers 
TTITLE10=Drink Some More
TTITLE11=Guy On Stage
TTITLE12=Culling The Herd
EXTD=
EXTT0=
EXTT1=
EXTT2=
EXTT3=
EXTT4=
EXTT5=
EXTT6=
EXTT7=
EXTT8=
EXTT9=
EXTT10=
EXTT11=
EXTT12=
PLAYORDER=
